<svg width="24" height="24" viewBox="0 0 24 24" fill="none" xmlns="http://www.w3.org/2000/svg">
<path d="M23.0711 8.40919C22.5504 7.43117 21.7727 6.61373 20.8219 6.04492C19.871 5.47611 18.783 5.17748 17.6751 5.18119H0.584064C0.468291 5.18216 0.355372 5.21723 0.259417 5.28201C0.163463 5.34679 0.0887294 5.43842 0.0445562 5.54544C0.000382956 5.65246 -0.0112707 5.77012 0.0110515 5.88373C0.0333737 5.99733 0.0886817 6.10184 0.170064 6.18419L3.89406 9.93019C4.05689 10.0938 4.25044 10.2236 4.46358 10.3121C4.67672 10.4007 4.90526 10.4462 5.13606 10.4462H17.1851C17.5972 10.4421 17.9941 10.6019 18.2884 10.8904C18.5828 11.1789 18.7505 11.5725 18.7546 11.9847C18.7587 12.3968 18.5989 12.7937 18.3104 13.0881C18.0218 13.3824 17.6282 13.5501 17.2161 13.5542H8.91006C8.79421 13.555 8.68115 13.5899 8.58504 13.6546C8.48894 13.7193 8.41405 13.8109 8.36976 13.918C8.32546 14.025 8.31372 14.1428 8.33601 14.2565C8.3583 14.3702 8.41362 14.4748 8.49506 14.5572L12.2201 18.3042C12.3828 18.4679 12.5764 18.5977 12.7895 18.6863C13.0027 18.7748 13.2312 18.8203 13.4621 18.8202H17.2191C22.1061 18.8202 25.8031 13.5952 23.0711 8.40719" fill="#F53333"/>
</svg>
