<svg width="27" height="29" viewBox="0 0 27 29" fill="none" xmlns="http://www.w3.org/2000/svg">
<path d="M11.4976 22.7419L21.0142 15.8667C22.6402 14.692 23.4531 14.1047 23.6008 13.0352C23.7485 11.9658 23.2146 11.2471 22.1467 9.80971C19.696 6.51106 16.3665 4.05192 12.5577 2.87737C11.1086 2.43049 10.384 2.20706 9.60725 2.68064C8.83049 3.15423 8.57704 4.07873 8.07016 5.92775L4.95729 17.2829C3.50101 22.5951 2.77286 25.2512 3.99109 26.268C5.20932 27.2848 7.30542 25.7706 11.4976 22.7419Z" fill="#FFBE43" stroke="#5E471A" stroke-width="1.5"/>
<path d="M8.4375 6.0415C8.4375 6.0415 9.04269 6.18433 10.0127 6.50243C13.0862 7.51041 15.8277 9.46445 18 12.0833" stroke="#614816" stroke-width="1.5"/>
<path d="M14.6341 13.2915H14.624" stroke="black" stroke-width="1.5"/>
<path d="M7.06854 9.61084C8.27889 9.96725 9.04925 11.1555 9.04925 12.5994C9.04925 14.6139 7.2268 16.1536 5.42676 15.6044" fill="#FF1212"/>
<path d="M7.06854 9.61084C8.27889 9.96725 9.04925 11.1555 9.04925 12.5994C9.04925 14.6139 7.2268 16.1536 5.42676 15.6044" stroke="#5E471A" stroke-width="1.5"/>
<path d="M9.25134 22.6546C8.63014 21.4833 8.79974 19.9473 9.75036 18.9263C10.8852 17.7074 12.7034 17.684 13.8113 18.8741C13.9974 19.0739 14.1516 19.2953 14.2741 19.5311" stroke="#5E471A" stroke-width="1.5"/>
<path d="M14.5391 20.5338C14.2059 19.1501 13.1162 18.1357 11.8235 18.1357C10.2657 18.1357 9.00293 19.6085 9.00293 21.4252C9.00293 22.3877 9.35739 23.2536 9.92237 23.8553" fill="#FF1212"/>
<path d="M14.5391 20.5338C14.2059 19.1501 13.1162 18.1357 11.8235 18.1357C10.2657 18.1357 9.00293 19.6085 9.00293 21.4252C9.00293 22.3877 9.35739 23.2536 9.92237 23.8553" stroke="#5E471A" stroke-width="1.5"/>
</svg>
