<svg width="28" height="28" viewBox="0 0 28 28" fill="none" xmlns="http://www.w3.org/2000/svg">
<path d="M9.33333 5.8335C6.11168 5.8335 3.5 9.34971 3.5 12.8659C3.5 16.9682 4.08333 19.8984 6.41667 23.4146C8.19051 25.7907 10.5586 26.3864 13.0829 24.7222C13.6216 24.367 14.3784 24.367 14.9171 24.7222C17.4413 26.3864 19.8095 25.7907 21.5833 23.4146C23.9167 19.8984 24.5 16.9682 24.5 12.8659C24.5 9.34971 21.8883 5.8335 18.6667 5.8335C17.0037 5.8335 15.5032 6.74921 14.4406 7.73813C14.1937 7.9679 13.8063 7.9679 13.5594 7.73813C12.4967 6.74921 10.9963 5.8335 9.33333 5.8335Z" fill="#EF1515" stroke="#880C0C" stroke-width="2.5" stroke-linejoin="round"/>
<path d="M7 14.0002C7 12.0944 7.95985 10.1886 9.33333 9.3335" stroke="black" stroke-width="1.5" stroke-linejoin="round"/>
<path d="M14 7.00016C14 5.44461 14.7 2.3335 17.5 2.3335L14 7.00016Z" fill="#031001"/>
<path d="M14 7.00016C14 5.44461 14.7 2.3335 17.5 2.3335" stroke="#0D5103" stroke-width="1.5" stroke-linejoin="round"/>
</svg>
