<svg width="16" height="16" viewBox="0 0 16 16" fill="none" xmlns="http://www.w3.org/2000/svg">
<rect width="16" height="16" rx="4" fill="black"/>
<path fill-rule="evenodd" clip-rule="evenodd" d="M9.0839 3.00539C9.0708 3.00926 9.03603 3.01883 9.00662 3.02667C8.96399 3.03804 8.94313 3.05062 8.90368 3.08871C8.84194 3.14833 8.8271 3.17911 8.78418 3.33658C8.76528 3.40596 8.74357 3.48425 8.73596 3.51057C8.72835 3.53689 8.70879 3.61127 8.6925 3.67586C8.67621 3.74045 8.65433 3.82341 8.64387 3.86022L8.62486 3.92713C8.37429 3.89999 8.07146 3.93243 7.82408 3.9659C7.57656 3.99937 7.52319 4.00862 7.36676 4.0452C7.17606 4.0898 6.87569 4.18115 6.73137 4.23844C6.611 4.28623 6.42145 4.37275 6.31682 4.42764C6.23524 4.47046 6.16512 4.50897 6.08559 4.55763C5.94021 4.6466 5.86221 4.69849 5.77331 4.76538C5.53961 4.94119 5.5222 4.95524 5.39192 5.07323C5.13179 5.3088 4.82327 5.67811 4.62976 5.98556C4.56613 6.08666 4.42904 6.33577 4.39241 6.41685C4.28304 6.65895 4.17532 6.96233 4.12082 7.18173C4.10953 7.22719 4.09431 7.28787 4.08699 7.31658C4.07967 7.34528 4.06935 7.39617 4.06408 7.42967C4.05879 7.46318 4.01918 7.73235 4.0165 7.7385C4.01213 7.74853 3.98972 8.25731 4.00564 8.5171C4.01773 8.71458 4.02427 8.76812 4.06281 8.98531C4.10526 9.22458 4.18625 9.49436 4.2944 9.75677C4.3306 9.84461 4.42826 10.0462 4.46085 10.1004C4.46948 10.1147 4.49649 10.1598 4.52086 10.2004C4.58332 10.3047 4.60071 10.3305 4.68752 10.4484C4.76374 10.5518 4.79159 10.5868 4.89893 10.7143C5.01701 10.8546 5.2726 11.0975 5.41534 11.2052C5.4534 11.2339 5.50027 11.2693 5.51952 11.2839C5.76892 11.4726 6.07375 11.6393 6.43312 11.7837L6.53055 11.8229L6.52519 11.8533C6.51841 11.8919 6.4639 12.1045 6.32668 12.6276C6.28614 12.7821 6.28017 12.8158 6.28229 12.8774C6.28369 12.9182 6.33022 12.9621 6.39575 12.9846C6.44982 13.0031 6.45116 13.0031 6.9513 12.9943L7.45265 12.9855C7.56056 12.9855 7.62172 12.9069 7.65937 12.8151C7.68378 12.7555 7.73981 12.5628 7.78466 12.384C7.79728 12.3338 7.82109 12.2427 7.83759 12.1817L7.86759 12.0708H8.0547C8.5929 12.0708 9.11104 11.9508 9.60782 11.7648C9.74628 11.7129 10.1043 11.5427 10.2652 11.4522C10.344 11.4079 10.5019 11.3066 10.5544 11.2666C10.5798 11.2472 10.6206 11.2166 10.6449 11.1986C10.8259 11.0645 10.996 10.9188 11.0974 10.8112C11.1347 10.7715 11.192 10.7108 11.2246 10.6763C11.31 10.586 11.4397 10.4444 11.3933 10.32C11.3567 10.267 11.324 10.2224 11.1743 10.1129C10.9932 9.98059 10.8304 9.8602 10.7718 9.81539C10.742 9.79261 10.6876 9.7558 10.651 9.73361C10.4495 9.61161 10.2724 9.80696 10.1365 9.93159C9.89716 10.1512 9.86826 10.1748 9.71188 10.2787C9.54031 10.3927 9.45469 10.4396 9.23312 10.5411C9.01563 10.6406 8.81766 10.7048 8.59807 10.7469C8.39303 10.7862 8.16424 10.8141 7.95313 10.8059C7.64338 10.794 7.36527 10.7467 7.11678 10.6638C6.82331 10.566 6.60367 10.4533 6.37924 10.2854C6.29045 10.219 6.09666 10.0466 6.05383 9.996C6.03359 9.97208 5.99869 9.93078 5.97629 9.90423C5.95388 9.87768 5.92579 9.84441 5.91384 9.83029C5.74132 9.62622 5.58188 9.30718 5.49888 8.99992C5.36385 8.55902 5.38165 8.17097 5.4355 7.72545C5.45491 7.5648 5.5244 7.29489 5.59564 7.10344C5.68839 6.85417 5.85954 6.54668 6.01932 6.34224C6.12159 6.21137 6.29153 6.0282 6.3994 5.93255C6.52848 5.81811 6.82575 5.60787 6.96128 5.53516C7.10907 5.45589 7.3777 5.33983 7.45032 5.32386C7.46596 5.32043 7.48989 5.3125 7.50349 5.30626C7.52599 5.29592 7.58561 5.27982 7.73121 5.24473C7.8201 5.22332 8.32646 5.16557 8.39953 5.16557C8.4534 5.16557 8.60533 5.17217 8.64864 5.17217C8.73144 5.17218 8.81151 5.17729 8.85527 5.18534C8.89457 5.19258 8.95191 5.20253 8.98271 5.20745C9.26658 5.25281 9.60813 5.36788 9.84695 5.49863C9.9857 5.57459 10.0801 5.63017 10.1222 5.6608C10.1406 5.67411 10.1763 5.69978 10.2017 5.71784C10.227 5.7359 10.2862 5.78387 10.3331 5.82445C10.4076 5.88883 10.4763 5.94976 10.5485 6.01756C10.65 6.11289 10.6809 6.14632 10.7645 6.25177C10.8706 6.3855 10.9224 6.40815 11.0367 6.37075C11.0708 6.35961 11.1115 6.34307 11.1272 6.334C11.1429 6.32493 11.1965 6.29334 11.2463 6.26379C11.2961 6.23425 11.3711 6.19124 11.413 6.16821C11.5768 6.0782 11.8838 5.88503 11.9259 5.84542C11.9877 5.78737 12.0172 5.72466 11.9897 5.65063C11.9485 5.53968 11.7725 5.30864 11.6102 5.15242C11.5603 5.10438 11.5248 5.0628 11.4737 5.0134C11.3095 4.86862 11.1696 4.76056 10.9891 4.63916C10.9393 4.60569 10.8836 4.568 10.8653 4.55541C10.7944 4.50677 10.6067 4.40129 10.5227 4.36298C10.4888 4.34753 10.4459 4.32626 10.4274 4.31569C10.4089 4.30514 10.3058 4.26225 10.1984 4.22038C10.091 4.17852 9.99985 4.14136 9.9958 4.1378C9.98607 4.12924 9.99558 4.09153 10.1308 3.60252C10.1942 3.37319 10.2461 3.17015 10.2461 3.15134C10.2461 3.10906 10.2153 3.05721 10.1784 3.0373C10.1631 3.02907 10.1282 3.01803 10.1007 3.01276C10.0413 3.00137 9.12012 2.99469 9.0839 3.00539ZM8.23531 5.79038C8.19464 5.79625 8.13871 5.83336 8.11277 5.87169C8.09396 5.89948 8.0668 5.99151 8.02651 6.1639C8.01477 6.21414 7.9845 6.33354 7.95924 6.42923C7.93398 6.52493 7.89366 6.67956 7.86966 6.77286C7.84565 6.86616 7.81785 6.97186 7.80788 7.00774C7.79791 7.04363 7.78313 7.10235 7.77503 7.13824C7.76695 7.17412 7.73864 7.28569 7.71215 7.38617C7.68566 7.48665 7.6251 7.72741 7.57759 7.92119C7.53008 8.11497 7.48963 8.27585 7.48771 8.27871C7.48579 8.28156 7.47101 8.33832 7.45488 8.40485C7.43875 8.47137 7.41123 8.5806 7.39371 8.64759C7.3762 8.71457 7.34792 8.82419 7.33085 8.89117C7.31379 8.95816 7.28329 9.07514 7.26308 9.15112C7.24286 9.22711 7.22633 9.29503 7.22633 9.30205C7.22633 9.30907 7.22051 9.32715 7.21339 9.34223C7.20627 9.35731 7.19134 9.4127 7.18021 9.46534C7.16908 9.51797 7.15293 9.58648 7.14432 9.61758C7.13572 9.64868 7.1267 9.72019 7.1243 9.77651L7.11994 9.87889L7.16299 9.89628C7.19271 9.90829 7.24383 9.91637 7.32811 9.92239C7.55609 9.93867 7.78622 9.91336 8.00977 9.91336C8.0536 9.91336 8.11712 9.88193 8.15501 9.84151C8.19851 9.7951 8.21908 9.74282 8.27043 9.54814C8.29381 9.45953 8.32958 9.3244 8.34993 9.24785C8.37028 9.17129 8.40045 9.05581 8.41699 8.99122C8.43353 8.92662 8.46135 8.81897 8.47882 8.75198C8.49631 8.685 8.52027 8.59104 8.53209 8.5432C8.54392 8.49535 8.57693 8.37008 8.60545 8.26481C8.63396 8.15955 8.66963 8.02253 8.6847 7.96033C8.74371 7.71672 8.78199 7.56642 8.79879 7.51231C8.80845 7.48121 8.8359 7.37747 8.85977 7.28178C8.91427 7.06341 8.96248 6.87877 9.04649 6.56672C9.0828 6.43181 9.11876 6.29432 9.12639 6.26119C9.13402 6.22807 9.15281 6.15249 9.16812 6.09326C9.22459 5.87498 9.2225 5.8922 9.19815 5.84626C9.16191 5.77791 9.17173 5.77913 8.68914 5.78252C8.45821 5.78414 8.25399 5.78768 8.23531 5.79038Z" fill="#F9D441"/>
</svg>
