<svg width="24" height="24" viewBox="0 0 24 24" fill="none" xmlns="http://www.w3.org/2000/svg">
<path d="M12.6972 3.5H11.3028C10.5882 3.5 10.2309 3.5 9.91049 3.612C9.71481 3.68039 9.53095 3.77879 9.3655 3.90367C9.09456 4.10816 8.89637 4.40544 8.5 5C8.297 5.30452 7.99776 5.75337 7.87849 5.87871C7.58296 6.18927 7.19545 6.39666 6.77311 6.47029C6.60266 6.5 6.41967 6.5 6.05369 6.5C5.07361 6.5 4.58358 6.5 4.18289 6.61342C3.18056 6.89716 2.39716 7.68055 2.11342 8.68289C2 9.08357 2 9.57361 2 10.5537V14.5C2 17.3284 2 18.7426 2.87868 19.6213C3.75736 20.5 5.17158 20.5 8 20.5H16C18.8284 20.5 20.2426 20.5 21.1213 19.6213C22 18.7426 22 17.3284 22 14.5V10.5537C22 9.57361 22 9.08357 21.8866 8.68289C21.6028 7.68055 20.8194 6.89716 19.8171 6.61342C19.4164 6.5 18.9264 6.5 17.9463 6.5C17.5803 6.5 17.3973 6.5 17.2269 6.47029C16.8045 6.39666 16.417 6.18927 16.1215 5.87871C16.0022 5.75336 15.703 5.30451 15.5 5C15.1036 4.40544 14.9054 4.10816 14.6345 3.90367C14.469 3.77879 14.2852 3.68039 14.0895 3.612C13.7691 3.5 13.4118 3.5 12.6972 3.5Z" fill="#ABABAB" stroke="#4E4E4E" stroke-width="2" stroke-linecap="round" stroke-linejoin="round"/>
<path d="M15 13C15 14.6568 13.6568 16 12 16C10.3431 16 9 14.6568 9 13C9 11.3432 10.3431 10 12 10C13.6568 10 15 11.3432 15 13Z" fill="white" stroke="#4E4E4E" stroke-width="2" stroke-linecap="round" stroke-linejoin="round"/>
<path d="M19.125 9.5H19M19.25 9.5C19.25 9.63807 19.1381 9.75 19 9.75C18.8619 9.75 18.75 9.63807 18.75 9.5C18.75 9.36193 18.8619 9.25 19 9.25C19.1381 9.25 19.25 9.36193 19.25 9.5Z" stroke="black" stroke-width="2" stroke-linecap="round" stroke-linejoin="round"/>
</svg>
