<svg width="24" height="24" viewBox="0 0 24 24" fill="none" xmlns="http://www.w3.org/2000/svg">
<path d="M14 2.20004C13.3538 2.06886 12.6849 2 12 2C6.47715 2 2 6.47715 2 12C2 17.5228 6.47715 22 12 22C17.5228 22 22 17.5228 22 12C22 11.3151 21.9311 10.6462 21.8 10" fill="#CEFFDB"/>
<path d="M14 2.20004C13.3538 2.06886 12.6849 2 12 2C6.47715 2 2 6.47715 2 12C2 17.5228 6.47715 22 12 22C17.5228 22 22 17.5228 22 12C22 11.3151 21.9311 10.6462 21.8 10" stroke="#058A29" stroke-width="2" stroke-linecap="round"/>
<path d="M12 9C10.8954 9 10 9.67157 10 10.5C10 11.3284 10.8954 12 12 12C13.1046 12 14 12.6716 14 13.5C14 14.3284 13.1046 15 12 15M12 9C12.8708 9 13.6116 9.4174 13.8862 10M12 9V8M12 15C11.1292 15 10.3884 14.5826 10.1138 14M12 15V16" stroke="#058A29" stroke-width="2" stroke-linecap="round"/>
<path d="M17 8L21.1759 3.8218M22 7.47824L21.8818 4.38675C21.8818 3.65811 21.4468 3.20412 20.6543 3.14686L17.5302 3" stroke="#DC1717" stroke-width="2" stroke-linecap="round" stroke-linejoin="round"/>
</svg>
