<svg width="24" height="24" viewBox="0 0 24 24" fill="none" xmlns="http://www.w3.org/2000/svg">
<path d="M3 11.5C3 7.02166 3 4.78249 4.39124 3.39124C5.78249 2 8.02166 2 12.5 2C16.9783 2 19.2175 2 20.6088 3.39124C22 4.78249 22 7.02166 22 11.5C22 15.9783 22 18.2175 20.6088 19.6088C19.2175 21 16.9783 21 12.5 21C8.02166 21 5.78249 21 4.39124 19.6088C3 18.2175 3 15.9783 3 11.5Z" fill="#1E1F1E" stroke="#053E08" stroke-width="2" stroke-linejoin="round"/>
<path d="M2.5 14.5H3.03875C3.51106 14.5 3.74721 14.5 3.95256 14.4013C4.15791 14.3026 4.30544 14.1182 4.60049 13.7494L6 12L7.5 14.5L9 11L11.5 16L15 9L17 12.5L18.5 11L19.9453 13.168C20.1973 13.546 20.3233 13.735 20.5074 13.8494C20.544 13.8721 20.582 13.8925 20.6212 13.9103C20.8185 14 21.0457 14 21.5 14" stroke="#053E08" stroke-linejoin="round"/>
<path d="M15 2.5V5.5M15 21.5V14.5" stroke="#053E08" stroke-width="2" stroke-linejoin="round"/>
<path d="M15 10C15.5523 10 16 9.55228 16 9C16 8.44772 15.5523 8 15 8C14.4477 8 14 8.44772 14 9C14 9.55228 14.4477 10 15 10Z" stroke="#053E08" stroke-width="2" stroke-linejoin="round"/>
</svg>
