<svg width="22" height="23" viewBox="0 0 22 23" fill="none" xmlns="http://www.w3.org/2000/svg">
<path d="M13.2915 5.27091H9.62484C6.33414 5.27091 3.6665 8.05981 3.6665 11.5001C3.6665 13.7054 4.76269 15.6431 6.4165 16.75L6.68005 18.4152C6.74429 18.8211 6.77641 19.024 6.86613 19.1805C6.9699 19.3614 7.12787 19.5014 7.31555 19.5789C7.47782 19.6459 7.67456 19.6459 8.06805 19.6459C8.43268 19.6459 8.615 19.6459 8.76899 19.5863C8.94715 19.5174 9.10043 19.3922 9.20766 19.2283C9.30025 19.0865 9.34452 18.9017 9.43289 18.5319L9.62484 17.7292H12.3748L12.5668 18.5319C12.6552 18.9017 12.6994 19.0865 12.792 19.2283C12.8993 19.3922 13.0525 19.5174 13.2307 19.5863C13.3846 19.6459 13.567 19.6459 13.9316 19.6459C14.3251 19.6459 14.5219 19.6459 14.6841 19.5789C14.8718 19.5014 15.0298 19.3614 15.1335 19.1805C15.2233 19.024 15.2554 18.8211 15.3196 18.4152L15.5832 16.75C16.6003 16.0692 17.4065 15.0742 17.8765 13.8959L18.693 13.725C19.3983 13.5775 19.7511 13.5037 19.9588 13.2387C20.1665 12.9738 20.1665 12.5978 20.1665 11.8457V11.5591C20.1665 10.8404 20.1665 10.481 19.9724 10.2211C19.7782 9.96109 19.4447 9.87398 18.7778 9.69966L18.3332 9.58341C18.3332 8.14591 17.2637 6.86814 16.4998 6.22925V3.35425H16.2579C15.0017 3.35425 13.8533 4.09626 13.2915 5.27091Z" fill="#E3B3BE" stroke="#9A7B82" stroke-width="1.5" stroke-linecap="round" stroke-linejoin="round"/>
<path d="M14.5522 9.34383H14.4377M14.6668 9.34383C14.6668 9.47615 14.5643 9.58341 14.4377 9.58341C14.3111 9.58341 14.2085 9.47615 14.2085 9.34383C14.2085 9.21151 14.3111 9.10425 14.4377 9.10425C14.5643 9.10425 14.6668 9.21151 14.6668 9.34383Z" stroke="black" stroke-width="1.5" stroke-linecap="round" stroke-linejoin="round"/>
<path d="M1.8335 7.66675V9.58341C1.8335 10.642 2.65431 11.5001 3.66683 11.5001" stroke="#A7838B" stroke-width="1.5" stroke-linecap="round" stroke-linejoin="round"/>
</svg>
