<svg width="24" height="24" viewBox="0 0 24 24" fill="none" xmlns="http://www.w3.org/2000/svg">
<path d="M2 12C2 17.5228 6.47715 22 12 22C17.5228 22 22 17.5228 22 12C22 6.47715 17.5228 2 12 2C7.89936 2 4.3752 4.46819 2.83209 8M2 4.5L2.5 8.5L6.5 7.5" stroke="#F1B339" stroke-width="2" stroke-linecap="round" stroke-linejoin="round"/>
<path d="M14.7256 10.0604C14.6267 9.29771 13.7527 8.06549 12.1811 8.06546C10.355 8.06543 9.58659 9.07873 9.43068 9.58538C9.18745 10.2631 9.23609 11.6564 11.3765 11.8083C14.0521 11.9983 15.1239 12.3147 14.9876 13.9553C14.8512 15.5958 13.3598 15.9503 12.1811 15.9122C11.0023 15.8743 9.07385 15.3318 8.99902 13.8726M11.994 6.49927V8.06908M11.994 15.9024V17.4993" stroke="#058A29" stroke-width="2" stroke-linecap="round" stroke-linejoin="round"/>
</svg>
