<svg width="24" height="24" viewBox="0 0 24 24" fill="none" xmlns="http://www.w3.org/2000/svg">
<path d="M2.01709 10.9808C4.21666 10.9808 6 9.19932 6 6.99975C4.44655 7.04655 3.51998 7.2198 2.87868 7.86111C2 8.73979 2 10.154 2 12.9825V14.9998C2 17.8282 2 19.2424 2.87868 20.1211C3.75736 20.9998 5.17157 20.9998 8 20.9998H16C18.8284 20.9998 20.2426 20.9998 21.1213 20.1211C22 19.2424 22 17.8282 22 14.9998V12.9825C22 10.154 22 8.73979 21.1213 7.86111C20.48 7.2198 19.5534 7.04485 18 6.99805C18 9.17837 19.769 10.9495 21.9423 10.9804" fill="#85BB65"/>
<path d="M2.01709 10.9808C4.21666 10.9808 6 9.19932 6 6.99975C4.44655 7.04655 3.51998 7.2198 2.87868 7.86111C2 8.73979 2 10.154 2 12.9825V14.9998C2 17.8282 2 19.2424 2.87868 20.1211C3.75736 20.9998 5.17157 20.9998 8 20.9998H16C18.8284 20.9998 20.2426 20.9998 21.1213 20.1211C22 19.2424 22 17.8282 22 14.9998V12.9825C22 10.154 22 8.73979 21.1213 7.86111C20.48 7.2198 19.5534 7.04485 18 6.99805C18 9.17837 19.769 10.9495 21.9423 10.9804" stroke="#1B5305" stroke-width="2" stroke-linecap="round" stroke-linejoin="round"/>
<path d="M12 7V3" stroke="#85BB65" stroke-width="2" stroke-linecap="round" stroke-linejoin="round"/>
<path d="M15 7V5" stroke="#85BB65" stroke-width="2" stroke-linecap="round" stroke-linejoin="round"/>
<path d="M9 7V5" stroke="#85BB65" stroke-width="2" stroke-linecap="round" stroke-linejoin="round"/>
<path d="M15 14C15 15.6569 13.6569 17 12 17C10.3431 17 9 15.6569 9 14C9 12.3431 10.3431 11 12 11C13.6569 11 15 12.3431 15 14Z" stroke="#1B5305" stroke-width="2" stroke-linecap="round" stroke-linejoin="round"/>
<path d="M18 20.9827V20.8908C18 18.742 19.742 17 21.8908 17" stroke="#1B5305" stroke-width="2" stroke-linecap="round" stroke-linejoin="round"/>
<path d="M2.01709 17C4.21666 17 5.99977 18.7831 5.99977 20.9827" stroke="#1B5305" stroke-width="2" stroke-linecap="round" stroke-linejoin="round"/>
</svg>
