<svg width="24" height="24" viewBox="0 0 24 24" fill="none" xmlns="http://www.w3.org/2000/svg">
<path d="M20.9427 16.8354C20.2864 12.8866 18.2432 9.94613 16.467 8.219C15.9501 7.71642 15.6917 7.46513 15.1208 7.23257C14.5499 7 14.0592 7 13.0778 7H10.9222C9.94081 7 9.4501 7 8.87922 7.23257C8.30834 7.46513 8.04991 7.71642 7.53304 8.219C5.75682 9.94613 3.71361 12.8866 3.05727 16.8354C2.56893 19.7734 5.27927 22 8.30832 22H15.6917C18.7207 22 21.4311 19.7734 20.9427 16.8354Z" fill="#F1B339" stroke="#987126" stroke-width="2" stroke-linecap="round"/>
<path d="M7.25662 4.44287C7.05031 4.14258 6.75128 3.73499 7.36899 3.64205C8.00392 3.54651 8.66321 3.98114 9.30855 3.97221C9.89237 3.96413 10.1898 3.70519 10.5089 3.33548C10.8449 2.94617 11.3652 2 12 2C12.6348 2 13.1551 2.94617 13.4911 3.33548C13.8102 3.70519 14.1076 3.96413 14.6914 3.97221C15.3368 3.98114 15.9961 3.54651 16.631 3.64205C17.2487 3.73499 16.9497 4.14258 16.7434 4.44287L15.8105 5.80064C15.4115 6.38146 15.212 6.67187 14.7944 6.83594C14.3769 7 13.8373 7 12.7582 7H11.2418C10.1627 7 9.6231 7 9.20556 6.83594C8.78802 6.67187 8.5885 6.38146 8.18945 5.80064L7.25662 4.44287Z" fill="#F1B339" stroke="#987126" stroke-width="2" stroke-linecap="round"/>
<path d="M7.33878 13.4432L7.46023 12.7273H10.3047L10.1832 13.4432H9.19886L8.77699 16H7.90128L8.32315 13.4432H7.33878ZM10.5328 16H9.574L11.1976 12.7273H12.4121L12.949 16H11.9902L11.6706 13.6286H11.645L10.5328 16ZM10.5712 14.7088H12.3737L12.2587 15.3736H10.4561L10.5712 14.7088ZM14.7216 12.7273L15.0987 13.6797H15.1243L15.8274 12.7273H16.8565L15.6101 14.3636L16.3516 16H15.3608L14.9645 15.0284H14.9389L14.223 16H13.1875L14.4659 14.3636L13.7628 12.7273H14.7216Z" fill="#058A29"/>
</svg>
