<svg width="24" height="24" viewBox="0 0 24 24" fill="none" xmlns="http://www.w3.org/2000/svg">
<path d="M9.37866 3.83307L9.21729 2.88021C9.14611 2.45991 9.11052 2.24976 8.95858 2.12488C8.80664 2 8.58655 2 8.14636 2H7.85617C7.41598 2 7.19589 2 7.04395 2.12488C6.89202 2.24976 6.85643 2.45991 6.78525 2.88021L6.62387 3.83307C6.28266 3.96639 5.96616 4.14778 5.68298 4.36874L4.7826 4.03678C4.3673 3.88367 4.15966 3.80712 3.97059 3.87291C3.78152 3.93869 3.67182 4.12567 3.45243 4.49963L3.29194 4.77319C3.07837 5.13722 2.97159 5.31924 3.00653 5.50636C3.04146 5.69349 3.20731 5.82785 3.53901 6.09658L4.30581 6.7178C4.28019 6.89156 4.26694 7.06926 4.26694 7.25C4.26694 7.4314 4.28029 7.60974 4.30609 7.7841L3.5411 8.40386C3.2094 8.67259 3.04355 8.80695 3.00861 8.99408C2.97367 9.1812 3.08046 9.36322 3.29402 9.72725L3.45451 10.0008C3.6739 10.3748 3.7836 10.5617 3.97267 10.6275C4.16174 10.6933 4.36939 10.6168 4.78468 10.4637L5.68403 10.1321C5.96694 10.3527 6.28308 10.5338 6.62387 10.6669L6.78524 11.6198C6.85643 12.0401 6.89202 12.2502 7.04395 12.3751C7.19589 12.5 7.41598 12.5 7.85617 12.5H8.14636C8.58655 12.5 8.80664 12.5 8.95858 12.3751C9.11051 12.2502 9.14611 12.0401 9.21729 11.6198L9.37866 10.6669C9.71912 10.5339 10.035 10.353 10.3177 10.1327L11.2153 10.4637C11.6306 10.6168 11.8383 10.6933 12.0273 10.6275C12.2164 10.5617 12.3261 10.3748 12.5455 10.0008L12.706 9.72725C12.9195 9.36322 13.0263 9.1812 12.9914 8.99408C12.9565 8.80695 12.7906 8.67259 12.4589 8.40386L11.6962 7.78593C11.7221 7.61099 11.7356 7.43204 11.7356 7.25C11.7356 7.06862 11.7222 6.89031 11.6965 6.71597L12.461 6.09658C12.7927 5.82785 12.9585 5.69349 12.9935 5.50636C13.0284 5.31924 12.9216 5.13722 12.7081 4.77319L12.5476 4.49963C12.3282 4.12567 12.2185 3.93869 12.0294 3.87291C11.8403 3.80712 11.6327 3.88367 11.2174 4.03678L10.3187 4.3681C10.0358 4.14743 9.71954 3.96626 9.37866 3.83307Z" fill="#C5C5C5" stroke="#585555" stroke-width="1.5" stroke-linejoin="round"/>
<path d="M17.3851 13.3331L17.2237 12.3802C17.1525 11.9599 17.1169 11.7498 16.965 11.6249C16.813 11.5 16.593 11.5 16.1528 11.5H15.8626C15.4224 11.5 15.2023 11.5 15.0504 11.6249C14.8984 11.7498 14.8628 11.9599 14.7916 12.3802L14.6303 13.3331C14.2891 13.4664 13.9726 13.6478 13.6894 13.8687L12.789 13.5368C12.3737 13.3837 12.1661 13.3071 11.977 13.3729C11.7879 13.4387 11.6782 13.6257 11.4588 13.9996L11.2983 14.2732C11.0848 14.6372 10.978 14.8192 11.0129 15.0064C11.0479 15.1935 11.2137 15.3279 11.5454 15.5966L12.3122 16.2178C12.2866 16.3916 12.2733 16.5693 12.2733 16.75C12.2733 16.9314 12.2867 17.1097 12.3125 17.2841L11.5475 17.9039C11.2158 18.1726 11.0499 18.307 11.015 18.4941C10.9801 18.6812 11.0869 18.8632 11.3004 19.2272L11.4609 19.5008C11.6803 19.8748 11.79 20.0617 11.9791 20.1275C12.1681 20.1933 12.3758 20.1168 12.7911 19.9637L13.6904 19.6321C13.9733 19.8527 14.2895 20.0338 14.6303 20.1669L14.7916 21.1198C14.8628 21.5401 14.8984 21.7502 15.0504 21.8751C15.2023 22 15.4224 22 15.8626 22H16.1528C16.593 22 16.813 22 16.965 21.8751C17.1169 21.7502 17.1525 21.5401 17.2237 21.1198L17.3851 20.1669C17.7255 20.0339 18.0414 19.853 18.3241 19.6327L19.2217 19.9637C19.637 20.1168 19.8447 20.1933 20.0337 20.1275C20.2228 20.0617 20.3325 19.8748 20.5519 19.5008L20.7124 19.2272C20.9259 18.8632 21.0327 18.6812 20.9978 18.4941C20.9629 18.307 20.797 18.1726 20.4653 17.9039L19.7026 17.2859C19.7285 17.111 19.742 16.932 19.742 16.75C19.742 16.5686 19.7286 16.3903 19.7029 16.216L20.4674 15.5966C20.7991 15.3279 20.9649 15.1935 20.9999 15.0064C21.0348 14.8192 20.928 14.6372 20.7145 14.2732L20.554 13.9996C20.3346 13.6257 20.2249 13.4387 20.0358 13.3729C19.8467 13.3071 19.6391 13.3837 19.2238 13.5368L18.3251 13.8681C18.0422 13.6474 17.7259 13.4663 17.3851 13.3331Z" fill="#C5C5C5" stroke="#585555" stroke-width="1.5" stroke-linejoin="round"/>
<path d="M8.25 7.25H8ZM8.5 7.25C8.5 7.52614 8.27614 7.75 8 7.75C7.72386 7.75 7.5 7.52614 7.5 7.25C7.5 6.97386 7.72386 6.75 8 6.75C8.27614 6.75 8.5 6.97386 8.5 7.25Z" fill="#585555"/>
<path d="M8.25 7.25H8M8.5 7.25C8.5 7.52614 8.27614 7.75 8 7.75C7.72386 7.75 7.5 7.52614 7.5 7.25C7.5 6.97386 7.72386 6.75 8 6.75C8.27614 6.75 8.5 6.97386 8.5 7.25Z" stroke="#585555" stroke-width="2" stroke-linejoin="round"/>
<path d="M16.25 16.75H16ZM16.5 16.75C16.5 17.0261 16.2761 17.25 16 17.25C15.7239 17.25 15.5 17.0261 15.5 16.75C15.5 16.4739 15.7239 16.25 16 16.25C16.2761 16.25 16.5 16.4739 16.5 16.75Z" fill="#585555"/>
<path d="M16.25 16.75H16M16.5 16.75C16.5 17.0261 16.2761 17.25 16 17.25C15.7239 17.25 15.5 17.0261 15.5 16.75C15.5 16.4739 15.7239 16.25 16 16.25C16.2761 16.25 16.5 16.4739 16.5 16.75Z" stroke="#585555" stroke-width="2" stroke-linejoin="round"/>
</svg>
