<svg width="24" height="24" viewBox="0 0 24 24" fill="none" xmlns="http://www.w3.org/2000/svg">
<path d="M13.4996 13.5C15.124 14.1962 15.9363 14.5443 16.7552 14.4351C16.8476 14.4227 16.9394 14.4061 17.0303 14.3852C17.8355 14.2003 18.474 13.5894 19.7511 12.3676L19.901 12.2242C20.8693 11.2559 21.3535 10.7717 21.4711 9.78342C21.5887 8.79514 21.3363 8.38218 20.8315 7.55626C20.3831 6.82247 19.7569 5.98593 18.8853 5.11433C18.0137 4.24272 17.1771 3.61654 16.4433 3.16808C15.6174 2.66332 15.2045 2.41094 14.2162 2.52851C13.2279 2.64609 12.7437 3.13027 11.7754 4.09863L11.632 4.24843C10.4103 5.52557 9.79939 6.16413 9.61445 6.96941C9.59361 7.0602 9.577 7.1519 9.56468 7.24423C9.45543 8.06322 9.80354 8.87548 10.4998 10.5" fill="#D67A36" fill-opacity="0.6"/>
<path d="M13.4996 13.5C15.124 14.1962 15.9363 14.5443 16.7552 14.4351C16.8476 14.4227 16.9394 14.4061 17.0303 14.3852C17.8355 14.2003 18.474 13.5894 19.7511 12.3676L19.901 12.2242C20.8693 11.2559 21.3535 10.7717 21.4711 9.78342C21.5887 8.79514 21.3363 8.38218 20.8315 7.55626C20.3831 6.82247 19.7569 5.98593 18.8853 5.11433C18.0137 4.24272 17.1771 3.61654 16.4433 3.16808C15.6174 2.66332 15.2045 2.41094 14.2162 2.52851C13.2279 2.64609 12.7437 3.13027 11.7754 4.09863L11.632 4.24843C10.4103 5.52557 9.79939 6.16413 9.61445 6.96941C9.59361 7.0602 9.577 7.1519 9.56468 7.24423C9.45543 8.06322 9.80354 8.87548 10.4998 10.5" stroke="#5D3716" stroke-width="2" stroke-linecap="round" stroke-linejoin="round"/>
<path d="M10.5 10.499L2.5 18.4997V21.4997H5.5V19.4997H7.5V17.4997H9.5L13.5 13.4997" fill="#D67A36" fill-opacity="0.6"/>
<path d="M10.5 10.499L2.5 18.4997V21.4997H5.5V19.4997H7.5V17.4997H9.5L13.5 13.4997" stroke="#5D3716" stroke-width="2" stroke-linecap="round" stroke-linejoin="round"/>
<path d="M17 7L16 8" stroke="#5D3716" stroke-width="2" stroke-linecap="round" stroke-linejoin="round"/>
</svg>
