<svg width="30" height="30" viewBox="0 0 30 30" fill="none" xmlns="http://www.w3.org/2000/svg">
<path d="M5 26.25V11.25C5 7.71446 5 5.9467 6.09835 4.84835C7.1967 3.75 8.96446 3.75 12.5 3.75C16.0355 3.75 17.8032 3.75 18.9016 4.84835C20 5.9467 20 7.71446 20 11.25V26.25H5Z" fill="#D94747" stroke="black" stroke-width="2" stroke-linecap="round" stroke-linejoin="round"/>
<path d="M2.5 26.25H22.5" stroke="black" stroke-width="2" stroke-linecap="round" stroke-linejoin="round"/>
<path d="M20 17.5H22.0834C22.4709 17.5 22.6646 17.5 22.8235 17.5426C23.2549 17.6581 23.5919 17.9951 23.7074 18.4265C23.75 18.5854 23.75 18.7791 23.75 19.1666V20.625C23.75 21.6605 24.5895 22.5 25.625 22.5C26.6605 22.5 27.5 21.6605 27.5 20.625V12.7639C27.5 12.0125 27.5 11.6368 27.3927 11.2825C27.2855 10.9282 27.077 10.6156 26.6602 9.99038L25.6934 8.54006C25.2603 7.89029 24.5309 7.5 23.75 7.5" stroke="black" stroke-width="2" stroke-linecap="round" stroke-linejoin="round"/>
<path d="M5 12.5H20" stroke="black" stroke-width="2" stroke-linecap="round" stroke-linejoin="round"/>
<path d="M13.0783 16.25L11.3357 18.5155C11.149 18.7582 11.2828 19.1076 11.5873 19.1723L13.4126 19.5596C13.7374 19.6285 13.8611 20.0152 13.6341 20.2514L11.4722 22.5" stroke="#E1BA5F" stroke-width="1.5" stroke-linecap="round" stroke-linejoin="round"/>
</svg>
