<svg width="24" height="24" viewBox="0 0 24 24" fill="none" xmlns="http://www.w3.org/2000/svg">
<path d="M4 18.6458V8.05426C4 5.20025 4 3.77325 4.87868 2.88663C5.75736 2 7.17157 2 10 2H14C16.8284 2 18.2426 2 19.1213 2.88663C20 3.77325 20 5.20025 20 8.05426V18.6458C20 20.1575 20 20.9133 19.538 21.2108C18.7831 21.6971 17.6161 20.6774 17.0291 20.3073C16.5441 20.0014 16.3017 19.8485 16.0325 19.8397C15.7417 19.8301 15.4949 19.9768 14.9709 20.3073L13.06 21.5124C12.5445 21.8374 12.2868 22 12 22C11.7132 22 11.4555 21.8374 10.94 21.5124L9.02913 20.3073C8.54415 20.0014 8.30166 19.8485 8.03253 19.8397C7.74172 19.8301 7.49493 19.9768 6.97087 20.3073C6.38395 20.6774 5.21687 21.6971 4.46195 21.2108C4 20.9133 4 20.1575 4 18.6458Z" fill="#8ACFD6" stroke="#2D747C" stroke-width="2" stroke-linecap="round" stroke-linejoin="round"/>
<path d="M6.33878 7.44318L6.46023 6.72727H9.30469L9.18324 7.44318H8.19886L7.77699 10H6.90128L7.32315 7.44318H6.33878ZM12.3745 8.42116C12.3148 8.77699 12.1966 9.07528 12.0197 9.31605C11.8429 9.55682 11.6282 9.73846 11.3757 9.86097C11.1232 9.98349 10.8532 10.0447 10.5655 10.0447C10.2587 10.0447 9.99237 9.97816 9.76651 9.84499C9.54066 9.71183 9.37607 9.51687 9.27273 9.26012C9.16939 9.00337 9.14862 8.68963 9.2104 8.31889C9.26793 7.96307 9.38512 7.66371 9.56197 7.42081C9.73881 7.17791 9.95455 6.99414 10.2092 6.8695C10.4638 6.74485 10.736 6.68253 11.0257 6.68253C11.3304 6.68253 11.5952 6.74964 11.82 6.88388C12.0458 7.01811 12.2099 7.21467 12.3121 7.47354C12.4155 7.73242 12.4363 8.0483 12.3745 8.42116ZM11.4796 8.31889C11.5094 8.13139 11.5115 7.97372 11.486 7.84588C11.4604 7.71697 11.4066 7.62003 11.3246 7.55504C11.2425 7.48899 11.1323 7.45597 10.9938 7.45597C10.8361 7.45597 10.6966 7.49432 10.5751 7.57102C10.4537 7.64773 10.353 7.75799 10.2731 7.90181C10.1932 8.04563 10.1373 8.21875 10.1053 8.42116C10.0712 8.6108 10.068 8.76847 10.0957 8.89418C10.1245 9.01989 10.1809 9.11417 10.2651 9.17702C10.3503 9.23988 10.4611 9.27131 10.5975 9.27131C10.753 9.27131 10.8904 9.23402 11.0098 9.15945C11.1301 9.08487 11.2298 8.97674 11.3086 8.83505C11.3885 8.69336 11.4455 8.52131 11.4796 8.31889ZM12.5235 10L13.0668 6.72727H13.9553L13.5334 9.28409H14.8566L14.7351 10H12.5235ZM15.0943 10L15.6376 6.72727H16.5261L16.1042 9.28409H17.4274L17.3059 10H15.0943Z" fill="#0D8996"/>
</svg>
