<svg width="24" height="24" viewBox="0 0 24 24" fill="none" xmlns="http://www.w3.org/2000/svg">
<path d="M20.9427 16.8354C20.2864 12.8866 18.2432 9.94613 16.467 8.219C15.9501 7.71642 15.6917 7.46513 15.1208 7.23257C14.5499 7 14.0592 7 13.0778 7H10.9222C9.94081 7 9.4501 7 8.87922 7.23257C8.30834 7.46513 8.04991 7.71642 7.53304 8.219C5.75682 9.94613 3.71361 12.8866 3.05727 16.8354C2.56893 19.7734 5.27927 22 8.30832 22H15.6917C18.7207 22 21.4311 19.7734 20.9427 16.8354Z" fill="#F1B339" stroke="#987126" stroke-width="2" stroke-linecap="round"/>
<path d="M7.25662 4.44287C7.05031 4.14258 6.75128 3.73499 7.36899 3.64205C8.00392 3.54651 8.66321 3.98114 9.30855 3.97221C9.89237 3.96413 10.1898 3.70519 10.5089 3.33548C10.8449 2.94617 11.3652 2 12 2C12.6348 2 13.1551 2.94617 13.4911 3.33548C13.8102 3.70519 14.1076 3.96413 14.6914 3.97221C15.3368 3.98114 15.9961 3.54651 16.631 3.64205C17.2487 3.73499 16.9497 4.14258 16.7434 4.44287L15.8105 5.80064C15.4115 6.38146 15.212 6.67187 14.7944 6.83594C14.3769 7 13.8373 7 12.7582 7H11.2418C10.1627 7 9.6231 7 9.20556 6.83594C8.78802 6.67187 8.5885 6.38146 8.18945 5.80064L7.25662 4.44287Z" fill="#F1B339" stroke="#987126" stroke-width="2" stroke-linecap="round"/>
<path d="M6.00568 16L6.48864 13.0909H7.27841L6.90341 15.3636H8.07955L7.97159 16H6.00568ZM11.2287 14.5966C11.1757 14.9129 11.0705 15.178 10.9134 15.392C10.7562 15.6061 10.5653 15.7675 10.3409 15.8764C10.1165 15.9853 9.87642 16.0398 9.62074 16.0398C9.34801 16.0398 9.11127 15.9806 8.91051 15.8622C8.70975 15.7438 8.56345 15.5705 8.47159 15.3423C8.37973 15.1141 8.36127 14.8352 8.41619 14.5057C8.46733 14.1894 8.5715 13.9233 8.72869 13.7074C8.88589 13.4915 9.07765 13.3281 9.30398 13.2173C9.5303 13.1065 9.77225 13.0511 10.0298 13.0511C10.3007 13.0511 10.536 13.1108 10.7358 13.2301C10.9366 13.3494 11.0824 13.5241 11.1733 13.7543C11.2652 13.9844 11.2836 14.2652 11.2287 14.5966ZM10.4332 14.5057C10.4598 14.339 10.4616 14.1989 10.4389 14.0852C10.4162 13.9706 10.3684 13.8845 10.2955 13.8267C10.2225 13.768 10.1245 13.7386 10.0014 13.7386C9.86127 13.7386 9.73722 13.7727 9.62926 13.8409C9.52131 13.9091 9.43182 14.0071 9.3608 14.1349C9.28977 14.2628 9.24006 14.4167 9.21165 14.5966C9.18134 14.7652 9.1785 14.9053 9.20312 15.017C9.22869 15.1288 9.27888 15.2126 9.35369 15.2685C9.42945 15.3243 9.52794 15.3523 9.64915 15.3523C9.78741 15.3523 9.90956 15.3191 10.0156 15.2528C10.1226 15.1866 10.2112 15.0904 10.2812 14.9645C10.3523 14.8385 10.4029 14.6856 10.4332 14.5057ZM11.9332 16H11.081L12.5241 13.0909H13.6037L14.081 16H13.2287L12.9446 13.892H12.9219L11.9332 16ZM11.9673 14.8523H13.5696L13.4673 15.4432H11.8651L11.9673 14.8523ZM17.3612 13.0909L16.8782 16H16.2191L15.4237 14.4716H15.4066L15.1509 16H14.3612L14.8441 13.0909H15.5146L16.2987 14.6136H16.3214L16.5714 13.0909H17.3612Z" fill="#141D16"/>
</svg>
