<svg width="24" height="24" viewBox="0 0 24 24" fill="none" xmlns="http://www.w3.org/2000/svg">
<path d="M5.99219 11L7.24348 16.8002C7.32919 17.1975 7.52703 17.5687 7.85696 17.8054C10.0787 19.3998 13.8908 19.3998 16.1126 17.8054C16.4426 17.5687 16.6404 17.1975 16.7261 16.8002L17.9774 11" fill="#43399A"/>
<path d="M5.99219 11L7.24348 16.8002C7.32919 17.1975 7.52703 17.5687 7.85696 17.8054C10.0787 19.3998 13.8908 19.3998 16.1126 17.8054C16.4426 17.5687 16.6404 17.1975 16.7261 16.8002L17.9774 11" stroke="#2F2867" stroke-width="2" stroke-linecap="round" stroke-linejoin="round"/>
<path d="M20.5004 9V16.3044V9ZM20.5004 16.3044C19.7228 17.8136 19.3789 18.6222 19.0296 19.9566C18.9538 20.4314 19.014 20.6706 19.3219 20.883C19.447 20.9693 19.5973 21 19.7464 21H21.2393C21.398 21 21.5581 20.9648 21.6889 20.8691C21.9751 20.6594 22.0487 20.4292 21.9711 19.9566C21.665 18.7175 21.275 17.8704 20.5004 16.3044Z" fill="#A87A1E"/>
<path d="M20.5004 9V16.3044M20.5004 16.3044C19.7228 17.8136 19.3789 18.6222 19.0296 19.9566C18.9538 20.4314 19.014 20.6706 19.3219 20.883C19.447 20.9693 19.5973 21 19.7464 21H21.2393C21.398 21 21.5581 20.9648 21.6889 20.8691C21.9751 20.6594 22.0487 20.4292 21.9711 19.9566C21.665 18.7175 21.275 17.8704 20.5004 16.3044Z" stroke="#2F2867" stroke-width="1.5" stroke-linecap="round" stroke-linejoin="round"/>
<path d="M1.99805 7.99928C1.99805 9.34126 10.0943 13 11.9857 13C13.8772 13 21.9734 9.34126 21.9734 7.99928C21.9734 6.6573 13.8772 2.99854 11.9857 2.99854C10.0943 2.99854 1.99805 6.6573 1.99805 7.99928Z" fill="#43399A" stroke="#2F2867" stroke-width="2" stroke-linecap="round" stroke-linejoin="round"/>
</svg>
