<svg width="24" height="24" viewBox="0 0 24 24" fill="none" xmlns="http://www.w3.org/2000/svg">
<path d="M6.08938 14.9993C5.71097 14.1487 5.5 13.2024 5.5 12.2052C5.5 8.5016 8.41015 5.49927 12 5.49927C15.5899 5.49927 18.5 8.5016 18.5 12.2052C18.5 13.2024 18.289 14.1487 17.9106 14.9993" fill="#FFD865"/>
<path d="M6.08938 14.9993C5.71097 14.1487 5.5 13.2024 5.5 12.2052C5.5 8.5016 8.41015 5.49927 12 5.49927C15.5899 5.49927 18.5 8.5016 18.5 12.2052C18.5 13.2024 18.289 14.1487 17.9106 14.9993" stroke="#EAB413" stroke-width="2" stroke-linecap="round"/>
<path d="M12 1.99927V2.99927" stroke="#EAB413" stroke-width="2" stroke-linecap="round"/>
<path d="M22 11.9993H21" stroke="#EAB413" stroke-width="2" stroke-linecap="round"/>
<path d="M3 11.9993H2" stroke="#EAB413" stroke-width="2" stroke-linecap="round"/>
<path d="M19.0704 4.92798L18.3633 5.63509" stroke="#EAB413" stroke-width="2" stroke-linecap="round"/>
<path d="M5.6368 5.63607L4.92969 4.92896" stroke="#EAB413" stroke-width="2" stroke-linecap="round"/>
<path d="M14.5312 18.6902C15.5416 18.3634 15.9468 17.4386 16.0608 16.5084C16.0948 16.2305 15.8662 16 15.5862 16L8.49102 16.0002C8.20142 16.0002 7.96884 16.246 8.00342 16.5335C8.11507 17.4619 8.39687 18.1401 9.46762 18.6902M14.5312 18.6902C14.5312 18.6902 9.64388 18.6902 9.46762 18.6902ZM14.5312 18.6902C14.4097 20.6352 13.848 21.4055 12.021 21.3839C10.0668 21.42 9.6172 20.4679 9.46762 18.6902" fill="#FDF2F2"/>
<path d="M14.5312 18.6902C15.5416 18.3634 15.9468 17.4386 16.0608 16.5084C16.0948 16.2305 15.8662 16 15.5862 16L8.49102 16.0002C8.20142 16.0002 7.96884 16.246 8.00342 16.5335C8.11507 17.4619 8.39687 18.1401 9.46762 18.6902M14.5312 18.6902C14.5312 18.6902 9.64388 18.6902 9.46762 18.6902M14.5312 18.6902C14.4097 20.6352 13.848 21.4055 12.021 21.3839C10.0668 21.42 9.6172 20.4679 9.46762 18.6902" stroke="#8D8D8D" stroke-width="2" stroke-linecap="round"/>
</svg>
