<svg width="24" height="24" viewBox="0 0 24 24" fill="none" xmlns="http://www.w3.org/2000/svg">
<path d="M20 5V19C20 20.6569 16.4183 22 12 22C7.58172 22 4 20.6569 4 19V5" fill="#ABABAB"/>
<path d="M20 5V19C20 20.6569 16.4183 22 12 22C7.58172 22 4 20.6569 4 19V5" stroke="#4E4E4E" stroke-width="2"/>
<path d="M12 8C16.4183 8 20 6.65685 20 5C20 3.34315 16.4183 2 12 2C7.58172 2 4 3.34315 4 5C4 6.65685 7.58172 8 12 8Z" fill="#ABABAB" stroke="#4E4E4E" stroke-width="2"/>
<path d="M8 8V10" stroke="#4E4E4E" stroke-width="2" stroke-linecap="round"/>
<path d="M8 15V17" stroke="#4E4E4E" stroke-width="2" stroke-linecap="round"/>
<path d="M20 12C20 13.6569 16.4183 15 12 15C7.58172 15 4 13.6569 4 12" stroke="#4E4E4E" stroke-width="2"/>
</svg>
